<svg id="lightbulb" version="1.1" xmlns="http://www.w3.org/2000/svg" xmlns:xlink="http://www.w3.org/1999/xlink" width="400" height="400" viewBox="0, 0, 400,400"><g id="svgg">
	<path id="path0" d="M175.890 
		90.998 C 175.017 92.382,174.729 98.682,175.288 104.199 C 175.332 104.629,175.417 105.552,175.477 106.250 C 175.684 108.638,175.810 109.276,176.222 110.009 C 176.449 110.412,176.750 110.742,176.891 110.742 C 177.033 110.742,177.148 110.821,177.148 110.917 C 177.148 111.395,179.122 111.624,179.879 111.232 C 180.436 110.944,181.208 110.158,180.938 110.153 C 180.841 110.152,180.888 110.071,181.042 109.973 C 181.386 109.756,181.492 108.036,181.229 106.934 C 181.127 106.504,181.003 105.889,180.955 105.566 C 180.906 105.244,180.774 104.541,180.661 104.004 C 180.437 102.934,180.342 102.403,180.193 101.367 C 180.139 100.991,180.050 100.395,179.997 100.042 C 179.598 97.409,179.573 97.235,179.411 95.996 C 179.189 94.298,179.049 93.642,178.860 93.408 C 178.752 93.274,178.719 93.164,178.788 93.164 C 179.039 93.164,177.860 91.100,177.365 90.674 C 176.663 90.069,176.446 90.117,175.890 90.998 M206.180 101.624 C 205.116 102.671,204.404 103.753,204.630 103.979 C 204.698 104.046,204.650 104.102,204.525 104.102 C 204.399 104.102,204.311 104.167,204.327 104.248 C 204.361 104.407,203.659 106.000,202.673 108.002 C 202.331 108.697,201.735 109.576,201.349 109.955 C 200.291 110.994,199.744 112.500,200.423 112.500 C 200.549 112.500,200.596 112.556,200.528 112.623 C 200.354 112.797,200.765 113.510,200.966 113.385 C 201.057 113.329,201.177 113.405,201.234 113.553 C 201.380 113.932,202.931 113.891,203.390 113.496 C 203.589 113.324,203.790 113.210,203.837 113.241 C 203.987 113.342,205.078 112.218,205.078 111.964 C 205.078 111.829,205.150 111.719,205.238 111.719 C 205.410 111.719,207.139 108.141,207.314 107.422 C 207.327 107.368,207.436 107.148,207.556 106.934 C 207.676 106.719,207.785 106.478,207.799 106.399 C 207.813 106.320,207.986 105.877,208.184 105.415 C 208.825 103.920,209.056 102.360,208.786 101.357 C 208.462 100.153,207.584 100.243,206.180 101.624 M141.550 101.056 C 140.827 101.779,141.701 105.664,142.586 105.664 C 142.689 105.664,142.773 105.784,142.773 105.930 C 142.773 106.076,142.988 106.356,143.250 106.553 C 143.512 106.750,143.691 106.969,143.647 107.039 C 143.471 107.324,148.765 112.172,149.055 111.992 C 149.145 111.936,149.219 111.974,149.219 112.076 C 149.219 112.344,150.575 112.467,151.312 112.266 C 152.053 112.064,153.411 110.852,153.228 110.556 C 153.159 110.444,153.195 110.352,153.309 110.352 C 153.673 110.352,153.544 108.545,153.131 107.867 C 152.728 107.207,151.289 106.055,150.866 106.055 C 150.730 106.055,150.589 105.986,150.553 105.902 C 150.475 105.718,148.047 103.846,148.047 103.970 C 148.047 104.018,147.677 103.719,147.225 103.305 C 146.773 102.892,146.375 102.583,146.340 102.619 C 146.304 102.654,146.018 102.442,145.703 102.148 C 144.498 101.022,142.190 100.416,141.550 101.056 M234.773 117.471 C 234.635 117.637,234.423 117.774,234.302 117.774 C 234.022 117.774,232.944 118.908,231.796 120.410 C 230.790 121.726,227.894 124.609,227.578 124.609 C 227.465 124.609,227.190 124.841,226.967 125.124 C 225.775 126.640,227.611 128.637,229.343 127.710 C 230.233 127.234,233.203 123.962,233.203 123.458 C 233.203 123.339,233.276 123.242,233.365 123.242 C 233.455 123.242,233.652 123.002,233.805 122.708 C 233.957 122.414,234.193 122.040,234.328 121.878 C 234.463 121.715,234.570 121.513,234.565 121.429 C 234.560 121.344,234.692 121.139,234.858 120.973 C 235.024 120.807,235.110 120.591,235.049 120.492 C 234.988 120.393,235.046 120.313,235.177 120.313 C 235.309 120.313,235.361 120.257,235.293 120.189 C 235.225 120.121,235.262 119.894,235.374 119.684 C 236.178 118.182,235.686 116.371,234.773 117.471 M116.357 128.461 C 114.780 128.698,115.435 131.356,117.515 133.165 C 118.033 133.615,118.648 134.166,118.881 134.389 C 119.114 134.611,119.362 134.783,119.431 134.770 C 119.500 134.756,119.733 134.970,119.949 135.244 C 120.164 135.518,120.469 135.742,120.626 135.742 C 120.782 135.742,120.961 135.874,121.023 136.034 C 121.084 136.195,121.214 136.277,121.311 136.217 C 121.408 136.157,121.537 136.237,121.597 136.395 C 121.720 136.716,123.826 138.174,123.831 137.941 C 123.833 137.860,123.907 137.909,123.997 138.050 C 124.087 138.192,124.283 138.332,124.434 138.361 C 124.584 138.391,124.937 138.480,125.218 138.558 C 126.859 139.017,128.636 137.427,128.453 135.663 C 128.302 134.213,127.942 133.813,125.847 132.762 C 125.113 132.393,123.962 131.775,123.291 131.388 C 122.620 131.002,122.070 130.731,122.070 130.786 C 122.070 130.842,121.935 130.752,121.769 130.586 C 120.681 129.498,117.574 128.278,116.357 128.461 M244.922 140.099 C 244.868 140.153,244.544 140.241,244.201 140.295 C 243.859 140.348,243.484 140.450,243.368 140.522 C 243.252 140.593,242.919 140.695,242.628 140.748 C 242.337 140.801,242.032 140.949,241.951 141.076 C 241.869 141.204,241.802 141.233,241.800 141.140 C 241.798 141.047,241.577 141.115,241.309 141.291 C 241.040 141.467,240.820 141.556,240.820 141.490 C 240.820 141.423,240.436 141.594,239.967 141.869 C 239.498 142.144,239.058 142.314,238.991 142.246 C 238.923 142.178,238.867 142.240,238.867 142.383 C 238.867 142.526,238.813 142.589,238.746 142.522 C 238.364 142.140,235.535 144.069,235.019 145.064 C 234.360 146.333,235.443 149.278,236.360 148.711 C 236.450 148.655,236.523 148.692,236.523 148.792 C 236.523 149.110,239.053 148.963,239.262 148.633 C 239.364 148.472,239.448 148.413,239.450 148.502 C 239.453 148.646,240.762 147.946,241.016 147.667 C 241.069 147.607,241.463 147.383,241.890 147.168 C 242.317 146.953,242.822 146.624,243.013 146.436 C 243.203 146.248,243.359 146.148,243.359 146.215 C 243.359 146.281,243.661 146.105,244.030 145.824 C 244.399 145.543,244.785 145.313,244.889 145.313 C 245.208 145.313,247.393 143.104,247.729 142.441 C 248.289 141.340,248.100 140.499,247.251 140.321 C 246.325 140.126,245.018 140.001,244.922 140.099 M179.639 162.125 C 179.451 162.235,179.297 162.274,179.297 162.212 C 179.297 161.138,176.215 164.838,175.884 166.309 C 175.860 166.416,175.786 166.636,175.720 166.797 C 175.475 167.396,174.816 169.450,174.717 169.922 C 174.661 170.190,174.401 171.289,174.140 172.363 C 173.878 173.438,173.619 174.580,173.564 174.902 C 173.510 175.225,173.287 176.455,173.070 177.637 C 172.853 178.818,172.617 180.225,172.546 180.762 C 172.475 181.299,172.384 181.914,172.343 182.129 C 171.294 187.646,171.311 199.918,172.379 206.348 C 172.539 207.314,172.713 208.369,172.764 208.691 C 172.891 209.482,173.090 210.474,173.343 211.572 C 173.399 211.814,173.495 212.319,173.556 212.695 C 173.648 213.261,174.142 215.383,174.521 216.846 C 174.569 217.034,174.645 217.347,174.689 217.543 C 174.979 218.834,175.863 222.031,176.009 222.314 C 176.458 223.183,175.780 222.538,175.291 221.631 C 174.987 221.067,174.677 220.562,174.602 220.508 C 174.528 220.454,174.405 220.212,174.330 219.971 C 174.254 219.729,174.110 219.531,174.010 219.531 C 173.910 219.531,173.828 219.429,173.828 219.304 C 173.828 219.048,171.783 215.700,171.380 215.298 C 171.237 215.154,171.064 214.861,170.996 214.647 C 170.928 214.433,170.790 214.258,170.690 214.258 C 170.590 214.258,170.508 214.143,170.508 214.002 C 170.508 213.861,170.332 213.557,170.117 213.326 C 169.902 213.096,169.727 212.853,169.727 212.787 C 169.727 212.721,169.617 212.545,169.482 212.395 C 169.006 211.864,168.808 211.601,168.731 211.395 C 168.310 210.275,163.550 204.947,161.170 202.930 C 160.599 202.446,159.720 201.677,159.217 201.219 C 157.996 200.111,157.000 199.426,156.427 199.301 C 155.016 198.992,153.461 199.445,153.209 200.238 C 153.148 200.429,153.019 200.586,152.922 200.586 C 152.246 200.586,151.925 205.992,152.417 209.082 C 152.468 209.404,152.571 210.239,152.645 210.938 C 152.718 211.636,152.812 212.264,152.853 212.334 C 152.895 212.403,152.976 212.843,153.034 213.310 C 153.092 213.778,153.239 214.512,153.362 214.941 C 153.484 215.371,153.569 215.790,153.549 215.873 C 153.529 215.955,153.641 216.329,153.797 216.703 C 153.954 217.077,154.044 217.383,153.999 217.383 C 153.953 217.383,154.009 217.625,154.124 217.920 C 154.238 218.215,154.365 218.625,154.407 218.831 C 154.567 219.627,155.145 221.197,155.319 221.311 C 155.420 221.377,155.488 221.488,155.471 221.558 C 155.408 221.814,155.699 222.852,155.833 222.852 C 155.909 222.852,155.986 223.041,156.003 223.273 C 156.021 223.505,156.105 223.747,156.191 223.811 C 156.277 223.874,156.376 224.102,156.410 224.316 C 156.546 225.173,161.210 234.277,161.961 235.151 C 162.148 235.369,162.236 235.550,162.156 235.553 C 162.077 235.557,162.171 235.680,162.367 235.828 C 162.562 235.976,162.718 236.171,162.714 236.262 C 162.703 236.518,163.931 238.477,164.104 238.477 C 164.188 238.477,164.258 238.608,164.258 238.770 C 164.258 238.931,164.346 239.063,164.453 239.063 C 164.561 239.063,164.648 239.182,164.648 239.327 C 164.648 239.472,164.864 239.824,165.127 240.108 C 165.391 240.392,165.563 240.625,165.510 240.625 C 165.458 240.625,165.508 240.735,165.622 240.869 C 165.736 241.003,166.407 241.926,167.113 242.920 C 167.820 243.913,168.648 244.994,168.954 245.322 C 169.260 245.650,169.525 245.979,169.543 246.055 C 169.587 246.238,170.682 247.604,171.286 248.229 C 171.553 248.505,171.752 248.790,171.730 248.863 C 171.707 248.937,171.957 249.222,172.285 249.498 C 172.613 249.774,172.809 250.000,172.720 250.000 C 172.631 250.000,172.800 250.242,173.094 250.537 C 173.389 250.833,173.959 251.470,174.361 251.953 C 174.764 252.437,175.599 253.335,176.218 253.949 C 176.837 254.563,177.344 255.146,177.344 255.245 C 177.344 255.343,177.673 255.721,178.076 256.085 C 178.479 256.449,178.821 256.821,178.837 256.912 C 178.852 257.003,179.094 257.308,179.373 257.591 C 180.448 258.678,181.250 259.589,181.251 259.723 C 181.252 259.800,181.691 260.340,182.228 260.922 C 182.764 261.504,183.205 262.031,183.207 262.094 C 183.209 262.156,183.737 262.769,184.379 263.457 C 185.021 264.144,185.547 264.769,185.547 264.844 C 185.547 264.920,185.762 265.215,186.026 265.499 C 186.289 265.783,186.443 266.018,186.368 266.022 C 186.292 266.025,186.401 266.157,186.610 266.315 C 186.818 266.473,186.926 266.602,186.849 266.602 C 186.772 266.602,187.230 267.371,187.867 268.311 C 189.012 270.001,190.197 271.289,190.608 271.289 C 190.725 271.289,190.820 271.374,190.820 271.478 C 190.820 271.793,191.708 272.170,192.750 272.297 C 193.813 272.426,195.184 271.492,195.253 270.589 C 195.269 270.383,195.435 269.775,195.621 269.238 C 195.807 268.701,195.982 268.086,196.010 267.871 C 196.038 267.656,196.080 267.458,196.102 267.432 C 196.124 267.405,196.161 267.317,196.184 267.236 C 196.237 267.047,196.466 266.432,196.704 265.842 C 196.807 265.585,197.052 264.706,197.247 263.889 C 197.736 261.846,197.741 261.829,197.854 261.719 C 197.908 261.665,198.165 261.138,198.423 260.547 C 198.682 259.956,199.142 258.923,199.447 258.251 C 199.751 257.580,200.000 256.855,200.000 256.640 C 200.000 256.426,200.070 256.250,200.155 256.250 C 200.322 256.250,201.105 254.098,201.025 253.857 C 200.998 253.777,201.057 253.711,201.156 253.711 C 201.255 253.711,201.396 253.438,201.469 253.105 C 201.543 252.771,201.768 252.124,201.970 251.667 C 202.172 251.210,202.370 250.670,202.409 250.467 C 202.448 250.264,202.589 249.834,202.724 249.512 C 202.858 249.189,202.990 248.838,203.017 248.730 C 203.044 248.623,203.122 248.403,203.191 248.242 C 203.537 247.433,204.067 245.703,203.969 245.703 C 203.908 245.703,203.968 245.571,204.102 245.410 C 204.235 245.249,204.279 245.117,204.199 245.117 C 204.119 245.117,204.163 244.985,204.297 244.824 C 204.431 244.663,204.475 244.531,204.395 244.531 C 204.315 244.531,204.336 244.421,204.443 244.287 C 204.638 244.042,205.025 242.955,205.164 242.265 C 205.205 242.061,205.332 241.653,205.447 241.357 C 205.561 241.062,205.602 240.820,205.538 240.820 C 205.473 240.820,205.508 240.710,205.614 240.576 C 205.814 240.324,206.383 238.680,206.510 237.988 C 206.550 237.773,206.632 237.466,206.694 237.305 C 206.891 236.790,207.210 235.660,207.300 235.156 C 207.348 234.888,207.568 234.009,207.789 233.203 C 208.010 232.397,208.234 231.431,208.287 231.055 C 208.339 230.679,208.466 229.976,208.568 229.492 C 208.671 229.009,208.814 228.139,208.886 227.558 C 209.014 226.539,209.062 226.245,209.270 225.195 C 210.021 221.418,209.738 213.377,208.771 211.035 C 208.638 210.713,208.517 210.405,208.503 210.352 C 208.347 209.766,208.144 209.375,207.995 209.375 C 207.894 209.375,207.813 209.273,207.813 209.149 C 207.813 208.792,206.844 207.617,206.549 207.617 C 206.403 207.617,206.253 207.527,206.216 207.418 C 206.041 206.893,203.689 206.831,202.733 207.325 C 201.196 208.120,198.433 211.992,198.171 213.717 C 198.150 213.853,198.082 214.053,198.019 214.160 C 197.854 214.439,197.101 216.803,196.991 217.383 C 196.941 217.651,196.772 218.354,196.617 218.945 C 196.462 219.536,196.272 220.371,196.195 220.801 C 195.976 222.014,195.911 222.323,195.753 222.896 C 195.672 223.189,195.600 220.069,195.594 215.962 C 195.579 206.357,195.368 199.041,195.017 195.996 C 194.967 195.566,194.872 194.512,194.806 193.652 C 194.739 192.793,194.655 192.039,194.617 191.977 C 194.580 191.915,194.498 191.388,194.434 190.805 C 194.370 190.223,194.225 189.175,194.112 188.477 C 193.998 187.778,193.863 186.899,193.811 186.523 C 193.575 184.823,192.719 180.430,192.365 179.102 C 192.150 178.296,191.926 177.378,191.868 177.063 C 191.769 176.530,191.010 174.236,190.635 173.340 C 190.545 173.125,190.237 172.378,189.949 171.680 C 189.282 170.057,187.712 167.303,186.719 166.011 C 184.146 162.663,181.350 161.128,179.639 162.125 M106.887 165.057 C 105.856 165.362,105.286 167.484,106.097 167.999 C 106.235 168.087,106.263 168.159,106.160 168.161 C 105.635 168.169,109.015 170.880,109.669 170.976 C 109.797 170.995,110.147 171.170,110.445 171.366 C 110.744 171.562,111.086 171.737,111.207 171.755 C 111.327 171.773,111.537 171.858,111.673 171.943 C 111.809 172.028,112.158 172.140,112.448 172.193 C 112.739 172.246,113.067 172.363,113.178 172.454 C 113.740 172.916,116.491 173.097,117.370 172.731 C 118.116 172.419,119.132 171.385,119.157 170.912 C 119.166 170.743,119.205 170.386,119.245 170.117 C 119.423 168.914,118.070 167.488,116.670 167.403 C 115.716 167.345,115.214 167.270,114.844 167.132 C 114.683 167.072,113.804 166.790,112.891 166.505 C 111.978 166.220,111.055 165.914,110.840 165.824 C 110.331 165.611,109.694 165.371,109.570 165.346 C 109.517 165.335,109.385 165.272,109.277 165.205 C 108.883 164.961,107.502 164.876,106.887 165.057 M182.122 165.534 C 182.586 165.806,183.173 166.332,183.426 166.704 C 183.680 167.076,183.953 167.381,184.033 167.381 C 184.114 167.382,184.180 167.498,184.180 167.639 C 184.180 167.780,184.354 168.083,184.568 168.312 C 184.782 168.541,185.177 169.217,185.447 169.814 C 185.717 170.410,186.172 171.404,186.459 172.021 C 186.745 172.639,187.001 173.232,187.028 173.340 C 187.054 173.447,187.222 173.931,187.401 174.414 C 187.834 175.582,188.409 177.763,188.891 180.060 C 189.107 181.091,189.315 182.076,189.353 182.251 C 189.390 182.425,189.468 182.864,189.526 183.227 C 189.584 183.590,189.777 184.766,189.956 185.840 C 190.337 188.135,190.319 187.999,190.711 191.504 C 191.500 198.553,191.504 198.717,191.504 223.145 C 191.504 242.362,191.435 246.774,191.002 255.160 C 190.891 257.300,190.817 259.585,190.838 260.238 C 190.916 262.747,190.640 263.113,190.337 260.903 C 190.273 260.439,190.130 259.598,190.019 259.036 C 189.908 258.474,189.818 257.970,189.818 257.917 C 189.818 257.863,189.731 257.532,189.625 257.181 C 189.518 256.830,189.387 256.323,189.334 256.055 C 189.080 254.765,187.882 250.418,187.559 249.609 C 187.494 249.448,187.413 249.175,187.378 249.001 C 187.344 248.828,187.212 248.432,187.085 248.122 C 186.958 247.812,186.823 247.394,186.784 247.192 C 186.745 246.991,186.591 246.551,186.442 246.216 C 186.048 245.331,185.532 243.744,185.418 243.066 C 185.363 242.744,185.148 241.777,184.940 240.918 C 184.732 240.059,184.515 239.136,184.458 238.867 C 184.401 238.599,184.180 237.720,183.967 236.914 C 183.753 236.108,183.534 235.229,183.478 234.961 C 183.395 234.561,182.930 232.738,182.306 230.371 C 182.250 230.156,182.156 229.717,182.098 229.395 C 182.040 229.072,181.910 228.655,181.810 228.467 C 181.709 228.279,181.670 228.125,181.722 228.125 C 181.774 228.125,181.682 227.708,181.518 227.197 C 181.353 226.687,181.145 225.962,181.055 225.586 C 180.752 224.310,180.705 224.120,180.480 223.241 C 180.356 222.758,180.200 222.231,180.134 222.070 C 179.986 221.708,179.995 221.745,179.807 220.802 C 179.722 220.373,179.597 219.934,179.529 219.826 C 179.461 219.717,179.379 219.453,179.345 219.238 C 179.312 219.023,179.184 218.496,179.060 218.066 C 178.798 217.154,178.728 216.893,178.694 216.704 C 178.685 216.652,178.550 216.147,178.393 215.581 C 178.070 214.412,177.965 213.977,177.834 213.281 C 177.784 213.013,177.562 212.002,177.342 211.035 C 177.121 210.068,176.906 209.058,176.863 208.789 C 176.820 208.521,176.604 207.246,176.384 205.957 C 175.444 200.466,175.318 198.928,175.308 192.871 C 175.301 187.617,175.365 186.029,175.710 183.008 C 175.850 181.780,175.901 181.432,176.037 180.762 C 176.103 180.439,176.211 179.824,176.277 179.395 C 176.344 178.965,176.421 178.525,176.449 178.418 C 176.476 178.311,176.575 177.783,176.668 177.246 C 176.760 176.709,176.846 176.226,176.858 176.172 C 176.869 176.118,176.991 175.547,177.127 174.902 C 177.264 174.258,177.498 173.291,177.647 172.754 C 177.797 172.217,177.956 171.554,178.002 171.281 C 178.266 169.694,179.596 166.329,180.257 165.576 C 180.838 164.914,181.057 164.909,182.122 165.534 M253.474 178.231 C 253.416 178.290,253.122 178.382,252.821 178.437 C 252.520 178.491,252.179 178.595,252.064 178.667 C 251.950 178.739,251.739 178.815,251.596 178.837 C 251.453 178.858,251.190 178.941,251.010 179.021 C 250.831 179.100,250.640 179.179,250.586 179.195 C 250.532 179.211,250.093 179.340,249.609 179.480 C 249.126 179.621,248.021 179.943,247.153 180.196 C 245.283 180.741,244.872 181.109,244.958 182.158 C 245.034 183.084,245.947 183.657,247.070 183.482 C 247.926 183.349,250.230 182.611,250.479 182.391 C 250.581 182.300,250.800 182.225,250.967 182.224 C 251.133 182.223,251.769 181.968,252.380 181.658 C 252.991 181.348,253.540 181.145,253.601 181.205 C 253.661 181.266,253.711 181.207,253.711 181.076 C 253.711 180.944,253.792 180.886,253.891 180.947 C 253.989 181.008,254.209 180.919,254.379 180.750 C 254.549 180.580,254.688 180.493,254.688 180.557 C 254.688 180.841,255.697 179.974,256.070 179.369 C 256.701 178.349,256.493 178.125,254.921 178.125 C 254.184 178.125,253.533 178.173,253.474 178.231 M102.334 202.159 C 101.660 202.880,101.615 203.376,102.142 204.241 C 102.519 204.860,104.325 205.962,104.566 205.720 C 104.633 205.654,104.688 205.701,104.688 205.827 C 104.688 205.952,104.808 206.055,104.956 206.055 C 105.103 206.055,105.608 206.225,106.079 206.432 C 106.549 206.640,107.153 206.846,107.422 206.891 C 107.690 206.935,108.042 207.024,108.203 207.089 C 109.850 207.753,113.044 207.840,113.248 207.227 C 113.285 207.118,113.388 207.074,113.478 207.130 C 113.690 207.261,114.480 206.257,114.341 206.032 C 114.283 205.937,114.314 205.859,114.410 205.859 C 114.506 205.859,114.601 205.452,114.619 204.953 C 114.654 204.033,113.877 202.584,113.481 202.830 C 113.389 202.886,113.285 202.848,113.249 202.746 C 113.185 202.563,112.494 202.399,111.133 202.242 C 110.757 202.199,109.395 202.038,108.105 201.886 C 103.919 201.390,103.012 201.433,102.334 202.159 M245.175 202.621 C 243.669 203.138,243.238 205.067,244.347 206.330 C 244.685 206.715,245.040 206.981,245.137 206.921 C 245.233 206.862,245.313 206.903,245.313 207.012 C 245.313 207.649,250.983 207.934,253.711 207.435 C 255.882 207.037,257.403 205.989,257.412 204.883 C 257.422 203.697,256.811 203.493,252.649 203.294 C 248.991 203.119,248.909 203.110,246.967 202.675 C 246.086 202.477,245.635 202.463,245.175 202.621 M156.537 203.369 C 156.679 203.503,157.074 203.833,157.415 204.102 C 159.782 205.967,162.778 209.070,165.055 212.012 C 165.636 212.764,166.178 213.408,166.259 213.444 C 166.340 213.480,166.406 213.596,166.406 213.701 C 166.406 213.916,167.399 215.296,167.627 215.397 C 167.708 215.433,167.773 215.587,167.773 215.739 C 167.773 215.891,167.851 216.016,167.946 216.016 C 168.041 216.016,168.177 216.169,168.247 216.357 C 168.490 216.999,168.842 217.578,168.992 217.578 C 169.074 217.578,169.141 217.663,169.141 217.767 C 169.141 217.936,170.757 220.710,171.135 221.191 C 171.220 221.299,171.653 222.090,172.097 222.949 C 172.541 223.809,172.967 224.556,173.043 224.609 C 173.119 224.663,173.819 226.025,174.600 227.637 C 175.380 229.248,176.118 230.631,176.241 230.710 C 176.364 230.789,176.400 230.855,176.321 230.856 C 176.241 230.858,176.617 231.737,177.156 232.810 C 177.696 233.882,178.130 234.807,178.121 234.865 C 178.113 234.924,178.315 235.386,178.571 235.894 C 178.826 236.401,179.190 237.168,179.378 237.598 C 179.567 238.027,179.846 238.628,179.997 238.932 C 180.149 239.236,180.273 239.563,180.273 239.659 C 180.273 239.755,180.483 240.297,180.739 240.864 C 181.367 242.254,181.534 242.770,182.017 244.824 C 182.245 245.791,182.740 247.813,183.118 249.316 C 183.496 250.820,183.852 252.300,183.909 252.605 C 183.966 252.909,184.134 253.560,184.282 254.050 L 184.550 254.942 183.828 254.245 C 183.430 253.862,182.739 253.197,182.292 252.767 C 181.844 252.337,181.514 251.949,181.559 251.905 C 181.603 251.860,181.134 251.333,180.517 250.734 C 179.900 250.134,178.791 248.933,178.054 248.064 C 177.316 247.195,176.635 246.484,176.540 246.484 C 176.445 246.484,176.367 246.393,176.367 246.281 C 176.367 246.105,174.587 243.831,174.233 243.555 C 174.164 243.501,173.774 242.996,173.366 242.432 C 172.957 241.868,172.543 241.406,172.444 241.406 C 172.346 241.406,172.266 241.315,172.266 241.204 C 172.266 241.003,169.854 237.579,169.450 237.207 C 169.334 237.100,169.114 236.772,168.963 236.478 C 168.811 236.184,168.526 235.771,168.328 235.558 C 168.130 235.346,167.969 235.124,167.969 235.064 C 167.969 234.956,166.595 232.805,166.407 232.617 C 166.353 232.563,166.141 232.190,165.936 231.787 C 165.731 231.384,165.489 231.055,165.399 231.055 C 165.308 231.055,165.255 230.989,165.280 230.908 C 165.326 230.761,164.422 229.101,163.499 227.637 C 163.228 227.207,162.986 226.732,162.961 226.582 C 162.937 226.432,162.801 226.235,162.659 226.146 C 162.518 226.056,162.470 225.981,162.553 225.980 C 162.733 225.976,161.942 224.368,161.676 224.197 C 161.574 224.131,161.511 224.043,161.537 224.002 C 161.617 223.872,161.062 222.461,160.931 222.461 C 160.863 222.461,160.807 222.351,160.807 222.217 C 160.807 221.986,160.335 220.811,159.945 220.071 C 159.846 219.884,159.766 219.599,159.766 219.436 C 159.766 219.274,159.678 219.141,159.570 219.141 C 159.463 219.141,159.385 219.075,159.398 218.994 C 159.411 218.914,159.400 218.782,159.374 218.701 C 159.348 218.621,159.312 218.489,159.294 218.408 C 159.214 218.048,158.503 216.049,158.235 215.430 C 158.072 215.054,157.917 214.629,157.891 214.487 C 157.864 214.344,157.779 214.080,157.700 213.901 C 157.622 213.721,157.537 213.486,157.512 213.379 C 157.486 213.271,157.320 212.656,157.142 212.012 C 156.965 211.367,156.778 210.620,156.728 210.352 C 156.678 210.083,156.595 209.678,156.544 209.451 C 156.327 208.483,156.018 206.040,155.935 204.639 C 155.845 203.102,155.971 202.835,156.537 203.369 M204.948 211.377 C 204.900 211.458,204.967 211.523,205.099 211.523 C 205.231 211.523,205.287 211.575,205.223 211.639 C 205.160 211.702,205.239 212.120,205.399 212.566 C 206.027 214.323,206.165 221.876,205.586 222.821 C 205.543 222.892,205.457 223.389,205.396 223.926 C 205.261 225.102,205.264 225.088,204.487 228.353 C 204.146 229.785,203.747 231.326,203.599 231.778 C 203.452 232.229,203.293 232.800,203.246 233.047 C 203.199 233.294,203.075 233.716,202.971 233.984 C 202.867 234.253,202.776 234.517,202.770 234.570 C 202.764 234.624,202.717 234.800,202.664 234.961 C 202.301 236.082,201.908 237.359,201.867 237.557 C 201.840 237.687,201.714 238.047,201.587 238.357 C 201.460 238.667,201.334 239.062,201.307 239.236 C 201.280 239.409,201.205 239.639,201.140 239.746 C 201.076 239.854,200.951 240.249,200.864 240.625 C 200.661 241.502,200.688 241.415,200.423 242.054 C 200.298 242.356,200.195 242.759,200.195 242.949 C 200.195 243.139,200.129 243.360,200.049 243.441 C 199.968 243.521,199.895 243.646,199.886 243.717 C 199.877 243.789,199.761 244.111,199.628 244.434 C 199.495 244.756,199.336 245.283,199.275 245.605 C 199.214 245.928,199.077 246.301,198.972 246.436 C 198.867 246.570,198.846 246.680,198.926 246.680 C 199.006 246.680,198.974 246.796,198.856 246.939 C 198.737 247.082,198.608 247.368,198.569 247.574 C 198.529 247.780,198.387 248.213,198.252 248.535 C 197.951 249.256,197.478 250.557,197.471 250.687 C 197.468 250.740,197.329 251.109,197.163 251.508 C 196.996 251.907,196.839 252.368,196.813 252.532 C 196.787 252.697,196.699 252.940,196.617 253.071 C 196.484 253.283,196.133 254.237,195.463 256.201 C 195.344 256.550,195.181 256.836,195.100 256.836 C 195.019 256.836,195.030 256.550,195.123 256.201 C 195.275 255.631,195.545 253.815,195.800 251.660 C 195.851 251.230,196.063 249.429,196.272 247.656 C 196.481 245.884,196.705 243.806,196.770 243.038 C 196.835 242.270,196.925 241.347,196.971 240.987 C 197.017 240.627,197.104 239.937,197.164 239.453 C 197.225 238.970,197.357 238.047,197.459 237.402 C 197.561 236.758,197.686 235.923,197.737 235.547 C 197.789 235.171,198.006 233.965,198.221 232.868 C 198.436 231.770,198.660 230.467,198.718 229.972 C 198.776 229.477,198.860 229.012,198.904 228.940 C 198.949 228.868,199.039 228.369,199.106 227.832 C 199.270 226.518,199.382 225.863,199.906 223.145 C 199.968 222.822,200.052 222.383,200.092 222.168 C 200.132 221.953,200.222 221.558,200.293 221.289 C 200.364 221.021,200.454 220.625,200.493 220.410 C 200.560 220.045,200.611 219.828,200.890 218.701 C 201.068 217.984,201.091 217.914,201.648 216.309 C 201.835 215.771,202.006 215.244,202.030 215.137 C 202.053 215.029,202.221 214.660,202.403 214.316 C 202.585 213.973,202.734 213.566,202.734 213.413 C 202.734 213.259,202.868 213.023,203.032 212.887 C 203.196 212.751,203.287 212.597,203.235 212.545 C 202.992 212.302,204.529 210.761,204.782 210.994 C 204.922 211.124,204.997 211.296,204.948 211.377 M243.604 223.161 C 243.254 223.436,242.969 223.787,242.969 223.940 C 242.969 224.093,242.902 224.219,242.819 224.219 C 242.439 224.219,242.555 226.577,242.968 227.244 C 243.545 228.179,246.484 230.300,246.484 229.782 C 246.484 229.723,246.666 229.771,246.888 229.890 C 247.369 230.147,247.701 230.233,249.576 230.585 C 256.246 231.834,258.752 227.627,252.507 225.665 C 250.312 224.975,248.688 224.280,247.945 223.714 C 247.606 223.455,247.271 223.302,247.200 223.373 C 247.128 223.444,247.070 223.414,247.070 223.306 C 247.070 222.543,244.523 222.436,243.604 223.161 M117.943 225.481 C 117.879 225.546,117.642 225.634,117.417 225.677 C 117.192 225.720,116.586 226.003,116.072 226.305 C 115.558 226.607,115.093 226.856,115.039 226.858 C 114.826 226.866,112.586 227.806,112.412 227.960 C 112.310 228.051,112.109 228.125,111.966 228.125 C 111.823 228.125,111.379 228.271,110.980 228.449 C 110.139 228.825,110.215 228.796,109.521 228.992 C 109.226 229.076,108.984 229.208,108.984 229.285 C 108.984 229.363,108.875 229.429,108.740 229.431 C 108.606 229.433,108.013 229.678,107.422 229.975 C 106.831 230.273,106.151 230.615,105.910 230.737 C 105.669 230.858,105.471 231.023,105.470 231.104 C 105.469 231.184,105.365 231.250,105.238 231.250 C 104.667 231.250,103.711 232.653,103.711 233.491 C 103.711 234.291,104.275 235.308,104.561 235.022 C 104.631 234.953,104.688 234.998,104.688 235.124 C 104.688 235.638,113.567 233.977,114.739 233.243 C 114.850 233.173,115.029 233.098,115.137 233.076 C 117.707 232.538,120.508 231.136,120.508 230.386 C 120.508 230.235,120.597 230.081,120.705 230.045 C 120.894 229.982,121.030 229.579,121.221 228.516 C 121.474 227.110,118.795 224.630,117.943 225.481 M118.970 250.404 C 118.679 250.581,118.274 250.980,118.071 251.291 C 117.675 251.896,117.447 252.133,116.962 252.441 C 116.459 252.761,113.797 254.677,113.428 254.985 C 113.240 255.141,113.085 255.205,113.083 255.125 C 113.081 255.046,113.015 255.068,112.936 255.176 C 112.768 255.406,112.177 255.788,111.606 256.037 C 110.628 256.465,110.222 258.112,110.904 258.887 C 111.649 259.732,112.675 259.886,114.844 259.478 C 117.392 258.999,122.384 255.538,122.780 253.976 C 123.489 251.177,121.211 249.041,118.970 250.404 M239.527 258.222 C 238.565 258.498,238.331 258.881,238.144 260.493 C 237.993 261.786,240.211 264.267,241.052 263.747 C 241.140 263.693,241.211 263.730,241.211 263.830 C 241.211 264.298,246.260 265.236,247.332 264.967 C 248.773 264.605,248.825 263.427,247.460 262.090 C 246.922 261.564,246.364 261.133,246.220 261.133 C 246.076 261.133,245.776 260.974,245.552 260.781 C 245.329 260.587,244.810 260.258,244.399 260.048 C 243.989 259.839,243.588 259.580,243.509 259.473 C 243.430 259.365,243.364 259.347,243.362 259.431 C 243.361 259.516,243.170 259.409,242.939 259.194 C 242.708 258.979,242.444 258.849,242.353 258.905 C 242.262 258.961,242.188 258.920,242.188 258.814 C 242.188 258.639,241.670 258.390,241.089 258.285 C 240.968 258.263,240.704 258.200,240.503 258.146 C 240.301 258.092,239.862 258.126,239.527 258.222 M130.436 270.606 C 130.376 270.666,130.126 270.754,129.880 270.801 C 129.212 270.930,126.778 273.979,127.093 274.294 C 127.159 274.360,127.111 274.414,126.986 274.414 C 126.860 274.414,126.758 274.539,126.758 274.691 C 126.758 274.843,126.679 274.997,126.583 275.033 C 126.342 275.122,122.852 280.019,122.852 280.268 C 122.852 280.378,122.766 280.469,122.661 280.469 C 122.003 280.469,121.614 282.914,122.182 283.482 C 122.586 283.886,123.691 283.872,124.575 283.453 C 125.403 283.060,130.745 277.815,130.648 277.490 C 130.640 277.463,130.992 277.053,131.430 276.579 C 131.868 276.104,132.227 275.599,132.227 275.456 C 132.227 275.313,132.329 275.195,132.454 275.195 C 132.580 275.195,132.624 275.137,132.552 275.065 C 132.480 274.993,132.560 274.781,132.729 274.593 C 133.114 274.169,133.247 272.708,132.951 272.175 C 132.829 271.956,132.726 271.719,132.722 271.647 C 132.708 271.390,131.769 270.703,131.431 270.703 C 131.242 270.703,130.965 270.656,130.816 270.599 C 130.668 270.542,130.497 270.545,130.436 270.606 " stroke="none" fill="#ecbc6c" fill-rule="evenodd">
	</path>
	<path id="path1" d="M174.902 122.087 C 157.733 123.848,145.737 134.142,137.868 153.866 C 131.721 169.273,130.921 182.011,134.192 212.402 C 135.537 224.899,137.173 232.068,142.480 248.730 C 144.498 255.065,145.538 259.068,146.858 265.577 C 149.206 277.162,150.856 280.703,154.490 281.955 C 156.087 282.505,166.032 283.376,171.094 283.409 L 173.340 283.424 171.005 283.908 C 165.581 285.032,162.201 286.941,160.910 289.607 C 157.830 295.970,167.693 299.552,186.384 298.860 C 200.209 298.347,203.863 298.606,208.741 300.440 C 210.957 301.273,213.188 302.515,212.932 302.772 C 212.630 303.073,206.871 302.609,200.391 301.761 C 177.910 298.818,168.249 300.422,164.563 307.708 C 162.028 312.718,164.731 316.758,171.552 318.156 C 175.827 319.033,175.921 319.037,189.844 319.040 C 202.035 319.043,203.396 319.075,205.176 319.405 C 207.417 319.821,210.256 320.669,210.061 320.864 C 209.988 320.937,205.476 321.049,200.033 321.113 C 190.926 321.220,189.942 321.265,187.695 321.669 C 177.754 323.458,171.242 327.862,171.218 332.813 C 171.187 339.205,178.791 340.246,204.650 337.392 C 212.060 336.574,212.696 336.318,212.695 334.150 C 212.691 330.526,205.567 329.612,189.945 331.230 C 186.172 331.620,183.049 331.836,181.163 331.836 L 178.237 331.836 178.914 331.260 C 180.410 329.984,184.185 328.508,188.014 327.700 C 190.060 327.269,190.502 327.252,200.195 327.231 C 212.982 327.202,214.250 326.994,216.730 324.516 C 220.576 320.673,218.055 315.708,211.011 313.251 C 206.165 311.561,202.603 311.221,192.090 311.446 C 177.182 311.764,170.706 311.591,169.968 310.854 C 169.724 310.610,170.213 309.659,170.974 308.899 C 174.514 305.359,183.567 304.824,199.219 307.230 C 206.750 308.387,207.604 308.473,211.719 308.485 C 219.434 308.507,222.801 305.372,220.197 300.588 C 216.888 294.508,206.464 291.542,191.060 292.299 C 179.756 292.855,174.378 292.723,169.629 291.772 C 167.179 291.282,167.101 291.196,168.531 290.554 C 174.949 287.673,194.793 287.377,209.573 289.942 C 214.437 290.786,216.797 289.789,216.797 286.891 C 216.797 280.995,202.978 277.969,173.638 277.440 C 167.521 277.330,156.925 276.717,156.667 276.458 C 156.603 276.395,156.360 275.799,156.127 275.134 C 155.894 274.470,155.293 272.785,154.792 271.390 C 153.600 268.073,152.532 263.851,151.753 259.375 C 151.001 255.058,150.043 251.211,148.442 246.081 C 144.177 232.420,143.150 228.700,141.896 222.381 C 138.585 205.699,137.519 181.662,139.563 169.762 C 141.645 157.632,147.803 144.491,154.679 137.503 C 164.005 128.024,178.551 125.153,195.588 129.429 C 222.028 136.065,232.117 157.581,229.091 200.879 C 227.406 224.985,225.339 240.145,222.061 252.441 C 221.202 255.664,219.979 260.718,219.344 263.672 C 218.708 266.626,217.833 270.424,217.398 272.112 C 216.386 276.039,215.937 279.734,216.385 280.441 C 216.768 281.046,218.270 280.956,218.861 280.294 C 220.538 278.411,222.389 273.538,224.515 265.407 C 225.116 263.110,226.213 259.077,226.952 256.445 C 229.756 246.470,231.046 240.096,232.406 229.492 C 232.947 225.268,234.079 212.085,234.879 200.684 C 237.027 170.065,232.213 149.797,219.649 136.567 C 210.131 126.543,191.197 120.416,174.902 122.087 " stroke="none" fill="#24243c" fill-rule="evenodd"></path>
<path id="path2" d="M195.561 222.656 C 195.561 223.140,195.599 223.337,195.646 223.096 C 195.692 222.854,195.692 222.458,195.646 222.217 C 195.599 221.975,195.561 222.173,195.561 222.656 " stroke="none" fill="#bcc054" fill-rule="evenodd"></path><path id="path3" d="" stroke="none" fill="#547454" fill-rule="evenodd"></path><path id="path4" d="M175.258 189.844 C 175.258 190.542,175.293 190.828,175.337 190.479 C 175.380 190.129,175.380 189.558,175.337 189.209 C 175.293 188.860,175.258 189.146,175.258 189.844 M195.362 201.270 C 195.364 201.699,195.404 201.852,195.451 201.609 C 195.497 201.366,195.496 201.015,195.447 200.828 C 195.398 200.641,195.360 200.840,195.362 201.270 M195.570 209.570 C 195.570 210.269,195.606 210.554,195.649 210.205 C 195.692 209.856,195.692 209.285,195.649 208.936 C 195.606 208.586,195.570 208.872,195.570 209.570 " stroke="none" fill="#582454" fill-rule="evenodd">
</path>
</g>
</svg>